<svg width="24" height="24" viewBox="0 0 24 24" fill="none" xmlns="http://www.w3.org/2000/svg">
<g clip-path="url(#clip0_783_253)">
<path d="M23.4168 10.5896L21.78 8.95306C21.3915 8.56458 21.0732 7.79687 21.0732 7.24631V4.93181C21.0732 3.83081 20.1737 2.93138 19.073 2.93079H16.7576C16.2077 2.93079 15.4391 2.61186 15.0506 2.22367L13.414 0.587116C12.6364 -0.190497 11.3632 -0.190497 10.5856 0.587116L8.94901 2.22484C8.56017 2.61333 7.7907 2.93138 7.24196 2.93138H4.92746C3.82793 2.93138 2.92733 3.83081 2.92733 4.93181V7.24637C2.92733 7.79476 2.60904 8.56487 2.2205 8.95312L0.583649 10.5897C-0.19455 11.3673 -0.19455 12.6405 0.583649 13.4193L2.2205 15.0559C2.60927 15.4444 2.92733 16.2142 2.92733 16.7626V19.0772C2.92733 20.177 3.82793 21.0776 4.92746 21.0776H7.24202C7.79193 21.0776 8.56052 21.3959 8.94907 21.7842L10.5856 23.4213C11.3632 24.1983 12.6364 24.1983 13.4141 23.4213L15.0506 21.7842C15.4394 21.3957 16.2077 21.0776 16.7577 21.0776H19.0731C20.1738 21.0776 21.0732 20.177 21.0732 19.0772V16.7626C21.0732 16.2119 21.3918 15.4441 21.7801 15.0559L23.4169 13.4193C24.1939 12.6405 24.1939 11.3672 23.4168 10.5896ZM10.4122 16.5042L5.9994 12.0909L7.41365 10.6769L10.4125 13.6758L16.5857 7.50407L17.9996 8.91802L10.4122 16.5042Z" fill="#049ABA"/>
</g>
<defs>
<clipPath id="clip0_783_253">
<rect width="24" height="24" fill="white" transform="translate(0 0.00390625)"/>
</clipPath>
</defs>
</svg>
