<svg width="37" height="37" viewBox="0 0 37 37" fill="none" xmlns="http://www.w3.org/2000/svg">
<path fill-rule="evenodd" clip-rule="evenodd" d="M18.285 23.8869L3.9167 18.0946L8.03792 16.4332L17.9097 20.4128C18.1505 20.5099 18.4196 20.5099 18.6604 20.4128L28.5322 16.4332L32.6534 18.0946L18.285 23.8869ZM27.9207 26.3928L33.9959 28.8419L18.285 35.1754L2.57422 28.8419L8.64943 26.3928L17.9097 30.1259C18.1505 30.223 18.4196 30.223 18.6604 30.1259L27.9207 26.3928ZM4.61289 23.6832L2.57422 22.8614V18.6358L4.68259 19.4857C4.65964 19.5425 4.64681 19.6043 4.64623 19.6692L4.61289 23.6832ZM5.64847 19.8751L7.375 20.5712C7.35205 20.6279 7.33922 20.6898 7.33872 20.7546L7.30537 24.7686L5.57877 24.0725C5.60171 24.0158 5.61455 23.9539 5.61512 23.8891L5.64847 19.8751ZM8.34088 20.9605L10.064 21.6551C10.0411 21.7119 10.0283 21.7738 10.0278 21.8387L9.99442 25.8526L8.27125 25.158C8.2942 25.1012 8.30703 25.0393 8.30754 24.9745L8.34088 20.9605ZM11.0299 22.0446L12.7526 22.739C12.7296 22.7958 12.7168 22.8576 12.7162 22.9225L12.6829 26.9365L10.9603 26.242C10.9832 26.1852 10.9961 26.1233 10.9966 26.0584L11.0299 22.0446ZM13.7185 23.1284L15.4405 23.8226C15.4177 23.8794 15.4048 23.9413 15.4043 24.0062L15.3709 28.0201L13.6488 27.3258C13.6717 27.2691 13.6846 27.2072 13.6851 27.1423L13.7185 23.1284ZM16.4065 24.212L17.8454 24.792C17.8283 24.842 17.8188 24.8954 17.8183 24.9509L17.7848 28.9932L16.3368 28.4095C16.3597 28.3527 16.3726 28.2908 16.3732 28.2259L16.4065 24.212ZM18.7859 24.7674L20.4704 24.0883L20.4369 28.1208C20.4364 28.1887 20.4493 28.2534 20.4733 28.3127L18.7887 28.9918L18.8222 24.9593C18.8228 24.8914 18.8098 24.8266 18.7859 24.7674ZM21.4397 23.6975L23.1605 23.0038L23.1271 27.0364C23.1265 27.1042 23.1394 27.169 23.1633 27.2283L21.4425 27.9219L21.476 23.8894C21.4766 23.8216 21.4636 23.7568 21.4397 23.6975ZM24.1298 22.6131L25.8502 21.9195L25.8172 25.9051C25.8165 25.9884 25.8361 26.067 25.8715 26.1365L24.1326 26.8375L24.1662 22.805C24.1667 22.7372 24.1537 22.6723 24.1298 22.6131ZM26.8195 21.5288L28.5394 20.8355L28.5058 24.8681C28.5052 24.9358 28.5182 25.0006 28.5421 25.0599L26.8224 25.7532L26.8558 21.7207C26.8564 21.6528 26.8434 21.588 26.8195 21.5288ZM29.5086 20.4447L31.2286 19.7513L31.195 23.7839C31.1945 23.8517 31.2075 23.9165 31.2314 23.9757L29.5114 24.6691L29.5449 20.6366C29.5455 20.5688 29.5325 20.504 29.5086 20.4447ZM32.1979 19.3606L33.9959 18.6358V22.8614L32.2007 23.585L32.2341 19.5525C32.2347 19.4847 32.2217 19.4198 32.1979 19.3606ZM25.4867 5.61259L22.3714 7.25974C22.1266 7.38924 21.8226 7.29552 21.6931 7.05065C21.5636 6.8057 21.6573 6.50174 21.9022 6.37231L25.754 4.33572C25.8257 4.29772 25.906 4.2775 25.9886 4.2775C26.0713 4.2775 26.1515 4.29772 26.2232 4.33572L30.075 6.37231C30.3199 6.50174 30.4136 6.8057 30.2841 7.05065C30.1547 7.29552 29.8507 7.38924 29.6058 7.25974L26.4906 5.61259V11.4143C26.4906 11.6914 26.2656 11.9163 25.9886 11.9163C25.7116 11.9163 25.4867 11.6914 25.4867 11.4143V5.61259ZM17.7831 2.72994L14.6679 4.37702C14.423 4.50652 14.119 4.41288 13.9895 4.16793C13.8601 3.92305 13.9537 3.61909 14.1987 3.48959L18.0504 1.453C18.1221 1.415 18.2024 1.39478 18.285 1.39478C18.3677 1.39478 18.448 1.415 18.5197 1.453L22.3714 3.48959C22.6164 3.61909 22.71 3.92305 22.5806 4.16793C22.4511 4.41288 22.1471 4.50652 21.9022 4.37702L18.787 2.72994V11.7328C18.787 12.0098 18.562 12.2347 18.285 12.2347C18.008 12.2347 17.7831 12.0098 17.7831 11.7328V2.72994ZM10.0795 5.61259L6.96434 7.25974C6.71939 7.38924 6.41543 7.29552 6.286 7.05065C6.1565 6.8057 6.25022 6.50174 6.4951 6.37231L10.3468 4.33572C10.4186 4.29772 10.4988 4.2775 10.5815 4.2775C10.6641 4.2775 10.7444 4.29772 10.8161 4.33572L14.6679 6.37231C14.9128 6.50174 15.0065 6.8057 14.877 7.05065C14.7475 7.29552 14.4435 7.38924 14.1987 7.25974L11.0834 5.61259V11.4143C11.0834 11.6914 10.8585 11.9163 10.5815 11.9163C10.3045 11.9163 10.0795 11.6914 10.0795 11.4143V5.61259ZM27.4945 10.5274L33.9959 13.1483L18.285 19.4818L2.57422 13.1483L9.07565 10.5274V11.4143C9.07565 12.2455 9.7504 12.9201 10.5815 12.9201C11.4125 12.9201 12.0873 12.2455 12.0873 11.4143V9.31326L16.7792 7.4218V11.7328C16.7792 12.5638 17.454 13.2386 18.285 13.2386C19.1161 13.2386 19.7909 12.5638 19.7909 11.7328V7.4218L24.4828 9.31326V11.4143C24.4828 12.2455 25.1576 12.9201 25.9886 12.9201C26.8197 12.9201 27.4945 12.2455 27.4945 11.4143V10.5274Z" fill="white"/>
</svg>
