<svg width="38" height="38" viewBox="0 0 38 38" fill="none" xmlns="http://www.w3.org/2000/svg">
<g clip-path="url(#clip0_789_121)">
<path d="M23.3524 11.225C23.3524 13.6249 21.4003 15.5777 19.0004 15.5777C16.6005 15.5777 14.6484 13.6249 14.6484 11.225C14.6484 8.82511 16.6005 6.87305 19.0004 6.87305C21.4003 6.87305 23.3524 8.82511 23.3524 11.225Z" fill="white"/>
<path d="M9.56357 12.2971H11.7193C12.311 12.2971 12.7907 11.8174 12.7907 11.2257C12.7907 10.634 12.311 10.1543 11.7193 10.1543H9.56357C8.97188 10.1543 8.49219 10.634 8.49219 11.2257C8.49219 11.8174 8.97188 12.2971 9.56357 12.2971Z" fill="white"/>
<path d="M25.2109 11.2257C25.2109 11.8174 25.6906 12.2971 26.2823 12.2971H28.4381C29.0298 12.2971 29.5095 11.8174 29.5095 11.2257C29.5095 10.634 29.0298 10.1543 28.4381 10.1543H26.2823C25.6906 10.1543 25.2109 10.634 25.2109 11.2257Z" fill="white"/>
<path d="M17.9297 18.5074V20.6632C17.9297 21.2549 18.4094 21.7346 19.0011 21.7346C19.5928 21.7346 20.0725 21.2549 20.0725 20.6632V18.5074C20.0725 17.9157 19.5928 17.436 19.0011 17.436C18.4094 17.436 17.9297 17.9157 17.9297 18.5074Z" fill="white"/>
<path d="M19.0011 5.01485C19.5928 5.01485 20.0725 4.53516 20.0725 3.94347V1.7877C20.0725 1.196 19.5928 0.716309 19.0011 0.716309C18.4094 0.716309 17.9297 1.196 17.9297 1.7877V3.94347C17.9297 4.53516 18.4094 5.01485 19.0011 5.01485Z" fill="white"/>
<path d="M13.092 15.617L11.5677 17.1414C11.1493 17.5598 11.1493 18.2381 11.5677 18.6565C11.9861 19.0749 12.6644 19.0749 13.0828 18.6565L14.6071 17.1322C15.0256 16.7137 15.0256 16.0354 14.6071 15.617C14.1887 15.1986 13.5103 15.1987 13.092 15.617Z" fill="white"/>
<path d="M23.3919 15.617C22.9735 16.0354 22.9735 16.7137 23.3919 17.1322L24.9162 18.6565C25.3346 19.0749 26.0129 19.0749 26.4314 18.6565C26.8497 18.2381 26.8498 17.5598 26.4314 17.1414L24.9071 15.617C24.4888 15.1987 23.8104 15.1986 23.3919 15.617Z" fill="white"/>
<path d="M13.092 6.83378C13.5103 7.25219 14.1887 7.25219 14.6071 6.83378C15.0256 6.41536 15.0256 5.73703 14.6071 5.31862L13.0828 3.79425C12.6646 3.37591 11.9862 3.37584 11.5677 3.79425C11.1493 4.21266 11.1493 4.89099 11.5677 5.30941L13.092 6.83378Z" fill="white"/>
<path d="M24.9071 6.83375L26.4314 5.30938C26.8498 4.89097 26.8497 4.21264 26.4314 3.79422C26.013 3.37588 25.3346 3.37588 24.9162 3.79422L23.3919 5.31859C22.9735 5.73701 22.9735 6.41534 23.3919 6.83375C23.8103 7.25223 24.4887 7.25216 24.9071 6.83375Z" fill="white"/>
<path d="M0.714844 32.0859V36.2151C0.714844 36.7508 1.10911 37.1957 1.62338 37.2743L6.81103 32.0859H0.714844Z" fill="white"/>
<path d="M9.84035 32.0859L4.64062 37.2864H7.96685L13.1674 32.0859H9.84035Z" fill="white"/>
<path d="M16.1998 32.0859L11 37.2864H14.3263L19.5268 32.0859H16.1998Z" fill="white"/>
<path d="M22.5552 32.0859L17.3555 37.2864H20.6818L25.8822 32.0859H22.5552Z" fill="white"/>
<path d="M28.9107 32.0859L23.7109 37.2864H27.0372L32.2377 32.0859H28.9107Z" fill="white"/>
<path d="M35.2708 32.0859L30.0703 37.2864H36.215C36.8064 37.2864 37.2864 36.8065 37.2864 36.2151V32.0859H35.2708Z" fill="white"/>
<path d="M37.2846 27.6437C37.2846 27.052 36.8049 26.5723 36.2132 26.5723H22.6186L33.9988 19.1852L33.7886 20.0528C33.6257 20.7247 34.1342 21.3768 34.8307 21.3768C35.3138 21.3768 35.7523 21.0478 35.871 20.5574C36.86 16.4764 36.698 17.1457 36.7178 17.0606C36.8512 16.4806 36.4872 15.9148 35.9266 15.7791L32.4418 14.9346C31.8663 14.7954 31.2875 15.1486 31.1482 15.7235C31.0089 16.2986 31.3621 16.8778 31.9371 17.0171L33.0047 17.2758L18.9998 26.3666L4.17399 16.7429C3.67773 16.4208 3.01425 16.5619 2.69198 17.0583C2.36985 17.5546 2.51106 18.2181 3.00733 18.5403L15.3811 26.5723H1.78623C1.19454 26.5723 0.714844 27.052 0.714844 27.6437V29.943H37.2846C37.2846 28.707 37.2846 28.8857 37.2846 27.6437Z" fill="white"/>
</g>
<defs>
<clipPath id="clip0_789_121">
<rect width="36.57" height="36.57" fill="white" transform="translate(0.714844 0.716309)"/>
</clipPath>
</defs>
</svg>
