<svg width="38" height="38" viewBox="0 0 38 38" fill="none" xmlns="http://www.w3.org/2000/svg">
<g clip-path="url(#clip0_789_148)">
<path fill-rule="evenodd" clip-rule="evenodd" d="M14.0685 30.8988V20.1345H28.6375V30.8988H14.0685ZM12.3054 13.3351H7.55593C7.0329 13.3351 6.6111 12.9133 6.6111 12.3902V11.108C6.6111 10.5849 7.0329 10.1631 7.55593 10.1631H8.34891V9.42922H5.56504C4.23215 9.42922 3.15234 8.34941 3.15234 7.02496C3.15234 5.70051 4.23215 4.61227 5.56504 4.61227H8.34891V3.88677H7.55593C7.0329 3.88677 6.6111 3.46498 6.6111 2.94194V1.65967C6.6111 1.13664 7.0329 0.714844 7.55593 0.714844H12.3054C12.8284 0.714844 13.2502 1.13664 13.2502 1.65967V2.94194C13.2502 3.46498 12.8284 3.88677 12.3054 3.88677H11.5208V4.61227H15.6292C16.2197 4.61227 16.709 5.10156 16.709 5.69208V8.35785C16.709 8.94837 16.2281 9.42922 15.6292 9.42922H11.5208V10.1631H12.3054C12.8284 10.1631 13.2502 10.5849 13.2502 11.108V12.3902C13.2502 12.9133 12.8284 13.3351 12.3054 13.3351ZM9.34436 10.1631H10.517V9.42922H9.34436V10.1631ZM10.517 4.61227V3.88677H9.34436V4.61227H10.517ZM32.4421 9.42922H27.0684C26.4778 9.42922 25.997 8.94837 25.997 8.35785V5.69208C25.997 5.10156 26.4778 4.61227 27.0684 4.61227H32.4337C33.7665 4.61227 34.8463 5.70051 34.8463 7.02496C34.8463 8.34941 33.7665 9.42922 32.4421 9.42922ZM25.4233 8.67841H23.5674V5.37151H25.4233V8.67841ZM19.1217 8.67841H17.2742V5.37151H19.1217V8.67841ZM19.6953 9.85102V4.27483C19.6953 3.36374 20.4377 2.62138 21.3488 2.62138C22.2599 2.62138 23.0022 3.36374 23.0022 4.27483V9.85102H19.6953ZM17.3248 13.1832V12.1372C17.3248 11.1923 18.0925 10.4247 19.0373 10.4247H23.6602C24.6051 10.4247 25.3727 11.1923 25.3727 12.1372V13.1832H17.3248ZM24.5038 37.2848H18.2021C15.9244 37.2848 14.0685 35.4289 14.0685 33.1512V31.9702C14.0685 31.6918 14.2878 31.4724 14.5662 31.4724H28.1397C28.4097 31.4724 28.6375 31.6918 28.6375 31.9702V33.1512C28.6375 35.4289 26.7815 37.2848 24.5038 37.2848ZM28.1397 19.5608H14.5662C14.2878 19.5608 14.0685 19.3415 14.0685 19.0631V15.6718C14.0685 14.6089 14.929 13.7569 15.9835 13.7569H26.7225C27.777 13.7569 28.6375 14.6089 28.6375 15.6718V19.0631C28.6375 19.3415 28.4097 19.5608 28.1397 19.5608ZM23.5843 24.9346C24.5713 24.9346 25.3727 24.1331 25.3727 23.1546C25.3727 22.1676 24.5713 21.3661 23.5843 21.3661C22.6057 21.3661 21.8043 22.1676 21.8043 23.1546C21.8043 24.1331 22.6057 24.9346 23.5843 24.9346ZM23.5843 21.9398C25.1787 21.9398 25.1787 24.3609 23.5843 24.3609C21.9899 24.3609 21.9899 21.9398 23.5843 21.9398ZM19.9062 29.6671C21.3235 29.6671 22.4708 28.5199 22.4708 27.1026C22.4708 25.6854 21.3235 24.5296 19.9062 24.5296C18.489 24.5296 17.3332 25.6854 17.3332 27.1026C17.3332 28.5199 18.489 29.6671 19.9062 29.6671ZM19.9062 25.1033C21.0113 25.1033 21.9055 25.9975 21.9055 27.1026C21.9055 28.1993 21.0029 29.1019 19.9062 29.1019C18.8011 29.1019 17.9069 28.1993 17.9069 27.1026C17.9069 25.9975 18.8011 25.1033 19.9062 25.1033Z" fill="white"/>
</g>
<defs>
<clipPath id="clip0_789_148">
<rect width="36.57" height="36.57" fill="white" transform="translate(0.714844 0.714844)"/>
</clipPath>
</defs>
</svg>
