<svg width="38" height="38" viewBox="0 0 38 38" fill="none" xmlns="http://www.w3.org/2000/svg">
<g clip-path="url(#clip0_789_156)">
<path fill-rule="evenodd" clip-rule="evenodd" d="M36.7849 36.2134H33.3564V32.4992H37.2848V35.7134C37.2848 35.9991 37.0706 36.2134 36.7849 36.2134ZM32.285 36.2134H24.1425V32.4992H28.2138H32.285V36.2134ZM23.0711 36.2134H14.9286V32.4992H18.9998H23.0711V36.2134ZM13.8572 36.2134H5.71465V32.4992H9.78592H13.8572V36.2134ZM4.64326 36.2134H1.21482C0.929121 36.2134 0.714844 35.9991 0.714844 35.7134V32.4992H4.64326V36.2134ZM0.714844 31.4278V28.0708H5.14324H9.28594V31.4278H5.14324H0.714844ZM0.714844 27.0709V23.7138H4.64326V27.0709H0.714844ZM5.71465 27.0709V23.7138H9.78592H13.8572V27.0709H9.78592H5.71465ZM10.2859 28.0708H14.3572H18.4999V31.4278H14.3572H10.2859V28.0708ZM14.9286 27.0709V23.7138H18.9998H23.0711V27.0709H18.9998H14.9286ZM19.4998 28.0708H23.6425H27.7138V31.4278H23.6425H19.4998V28.0708ZM24.1425 27.0709V23.7138H28.2138H32.285V27.0709H28.2138H24.1425ZM28.7137 28.0708H32.8564H37.2848V31.4278H32.8564H28.7137V28.0708ZM33.3564 27.0709V23.7138H37.2848V27.0709H33.3564ZM0.714844 22.6425V19.3569H5.14324H9.28594V22.6425H5.14324H0.714844ZM0.714844 18.2855V14.9285H4.64326V18.2855H0.714844ZM5.71465 14.9285H9.78592H13.8572V18.2855H9.78592H5.71465V14.9285ZM14.9286 14.9285H18.9998H23.0711V18.2855H18.9998H14.9286V14.9285ZM24.1425 14.9285H28.2138H32.285V18.2855H28.2138H24.1425V14.9285ZM33.3564 14.9285H37.2848V18.2855H33.3564V14.9285ZM10.2859 19.3569H14.3572H18.4999V22.6425H14.3572H10.2859V19.3569ZM0.714844 13.9285V10.5715H5.14324H9.28594V13.9285H5.14324H0.714844ZM0.714844 9.50012V6.21453H4.64326V9.50012H0.714844ZM5.71465 6.21453H9.78592H13.8572V9.50012H9.78592H5.71465V6.21453ZM14.9286 6.21453H18.9998H23.0711V9.50012H18.9998H14.9286V6.21453ZM24.1425 6.21453H28.2138H32.285V9.50012H28.2138H24.1425V6.21453ZM33.3564 6.21453H37.2848V9.50012H33.3564V6.21453ZM10.2859 10.5715H14.3572H18.4999V13.9285H10.2859V10.5715ZM0.714844 5.14314V1.92898C0.714844 1.85756 0.714844 1.85756 0.714844 1.78613H9.28594V5.14314H5.14324H0.714844ZM10.2859 1.78613H18.4999V5.14314H14.3572H10.2859V1.78613ZM19.4998 19.3569H23.6425H27.7138V22.6425H23.6425H19.4998V19.3569ZM19.4998 10.5715H23.6425H27.7138V13.9285H19.4998V10.5715ZM19.4998 1.78613H27.7138V5.14314H23.6425H19.4998V1.78613ZM28.7137 19.3569H32.8564H37.2848V22.6425H32.8564H28.7137V19.3569ZM28.7137 10.5715H32.8564H37.2848V13.9285H28.7137V10.5715ZM28.7137 1.78613H37.2848V1.92898V5.14314H32.8564H28.7137V1.78613Z" fill="white"/>
</g>
<defs>
<clipPath id="clip0_789_156">
<rect width="36.57" height="36.57" fill="white" transform="translate(0.714844 0.714844)"/>
</clipPath>
</defs>
</svg>
