<svg width="38" height="38" viewBox="0 0 38 38" fill="none" xmlns="http://www.w3.org/2000/svg">
<g clip-path="url(#clip0_789_190)">
<path d="M9.375 11.1833C9.65435 18.5146 13.1939 25.3279 18.9997 29.7464C24.8201 25.3165 28.3639 18.4811 28.6265 11.1833C25.2595 10.6884 22.0276 9.64735 18.9997 8.08105C15.9717 9.64735 12.7419 10.6884 9.375 11.1833ZM25.1141 15.4866L17.9283 22.6725L13.9567 18.7009L15.4717 17.1858L17.9283 19.6425L23.5992 13.9716L25.1141 15.4866Z" fill="white"/>
<path d="M34.9489 5.051L33.8388 5.09078C25.3592 5.39891 19.2238 0.795161 19.0005 0.713379C18.7797 0.794519 12.8128 5.43577 4.00107 5.08657H2.92969V10.3106C2.92969 29.4086 18.7855 37.0688 19.0005 37.2834C23.7154 34.5918 35.0713 26.4864 35.0713 10.3106V6.15788L34.9489 5.051ZM30.7857 10.2457C30.7857 24.9022 19.1968 32.1662 19.0005 32.3912C18.8136 32.1769 7.21523 25.2548 7.21523 10.3106V9.35533L8.1642 9.18162C14.463 8.45422 18.6018 5.82368 19.0005 5.65154C19.4034 5.82554 23.4157 8.44008 29.8368 9.18169L30.7857 9.29047V10.2457Z" fill="white"/>
</g>
<defs>
<clipPath id="clip0_789_190">
<rect width="36.57" height="36.57" fill="white" transform="translate(0.714844 0.713379)"/>
</clipPath>
</defs>
</svg>
