<svg width="38" height="38" viewBox="0 0 38 38" fill="none" xmlns="http://www.w3.org/2000/svg">
<g clip-path="url(#clip0_789_226)">
<path d="M25.4274 5.92746C26.8672 5.92746 28.0344 4.76025 28.0344 3.32042C28.0344 1.88059 26.8672 0.713379 25.4274 0.713379C23.9875 0.713379 22.8203 1.88059 22.8203 3.32042C22.8203 4.76025 23.9875 5.92746 25.4274 5.92746Z" fill="white"/>
<path d="M9.6422 8.74875C11.082 8.74875 12.2492 7.58154 12.2492 6.14171C12.2492 4.70188 11.082 3.53467 9.6422 3.53467C8.20237 3.53467 7.03516 4.70188 7.03516 6.14171C7.03516 7.58154 8.20237 8.74875 9.6422 8.74875Z" fill="white"/>
<path d="M11.443 37.2834C12.8828 37.2834 14.05 36.1162 14.05 34.6764C14.05 33.2365 12.8828 32.0693 11.443 32.0693C10.0031 32.0693 8.83594 33.2365 8.83594 34.6764C8.83594 36.1162 10.0031 37.2834 11.443 37.2834Z" fill="white"/>
<path d="M34.6774 32.5451C36.1172 32.5451 37.2844 31.3779 37.2844 29.9381C37.2844 28.4983 36.1172 27.3311 34.6774 27.3311C33.2375 27.3311 32.0703 28.4983 32.0703 29.9381C32.0703 31.3779 33.2375 32.5451 34.6774 32.5451Z" fill="white"/>
<path d="M20.0011 10.2844C20.5928 10.2844 21.0725 9.8047 21.0725 9.21299C21.0725 8.62128 20.5928 8.1416 20.0011 8.1416C19.4094 8.1416 18.9297 8.62128 18.9297 9.21299C18.9297 9.8047 19.4094 10.2844 20.0011 10.2844Z" fill="white"/>
<path d="M3.1417 14.7844C3.73341 14.7844 4.21309 14.3047 4.21309 13.713C4.21309 13.1213 3.73341 12.6416 3.1417 12.6416C2.54999 12.6416 2.07031 13.1213 2.07031 13.713C2.07031 14.3047 2.54999 14.7844 3.1417 14.7844Z" fill="white"/>
<path d="M4.28623 29.6408C4.87794 29.6408 5.35762 29.1611 5.35762 28.5694C5.35762 27.9777 4.87794 27.498 4.28623 27.498C3.69452 27.498 3.21484 27.9777 3.21484 28.5694C3.21484 29.1611 3.69452 29.6408 4.28623 29.6408Z" fill="white"/>
<path d="M17.1417 29.6408C17.7334 29.6408 18.2131 29.1611 18.2131 28.5694C18.2131 27.9777 17.7334 27.498 17.1417 27.498C16.55 27.498 16.0703 27.9777 16.0703 28.5694C16.0703 29.1611 16.55 29.6408 17.1417 29.6408Z" fill="white"/>
<path d="M34.0714 22.9982C34.6631 22.9982 35.1428 22.5186 35.1428 21.9269C35.1428 21.3351 34.6631 20.8555 34.0714 20.8555C33.4797 20.8555 33 21.3351 33 21.9269C33 22.5186 33.4797 22.9982 34.0714 22.9982Z" fill="white"/>
<path d="M23.8018 22.2124H1.78623C1.19483 22.2124 0.714844 22.6924 0.714844 23.2838C0.714844 23.8752 1.19483 24.3552 1.78623 24.3552H23.8018C24.9453 24.3552 25.8753 25.2851 25.8753 26.4287C25.8753 27.5722 24.9453 28.5022 23.8018 28.5022C23.2097 28.5022 22.7304 28.9814 22.7304 29.5735C22.7304 30.1649 23.2097 30.6449 23.8018 30.6449C26.1267 30.6449 28.0181 28.7536 28.0181 26.4287C28.0181 24.1038 26.1267 22.2124 23.8018 22.2124Z" fill="white"/>
<path d="M33.0674 9.49434C34.2109 9.49434 35.1409 10.4243 35.1409 11.5678C35.1409 12.7114 34.2109 13.6413 33.0674 13.6413H11.0519C10.4605 13.6413 9.98047 14.1213 9.98047 14.7127C9.98047 15.3041 10.4605 15.7841 11.0519 15.7841H33.0674C35.3923 15.7841 37.2837 13.8927 37.2837 11.5678C37.2837 9.24292 35.3923 7.35156 33.0674 7.35156C32.476 7.35156 31.996 7.83154 31.996 8.42295C31.996 9.01507 32.476 9.49434 33.0674 9.49434Z" fill="white"/>
<path d="M30.0713 17.7993H6.05576C5.46436 17.7993 4.98438 18.2793 4.98438 18.8707C4.98438 19.4628 5.46436 19.9421 6.05576 19.9421H30.0713C30.6627 19.9421 31.1426 19.4628 31.1426 18.8707C31.1426 18.2793 30.6627 17.7993 30.0713 17.7993Z" fill="white"/>
</g>
<defs>
<clipPath id="clip0_789_226">
<rect width="36.57" height="36.57" fill="white" transform="translate(0.714844 0.713379)"/>
</clipPath>
</defs>
</svg>
